<?xml version="1.0" standalone="no"?>
<!DOCTYPE svg PUBLIC "-//W3C//DTD SVG 20010904//EN"
 "http://www.w3.org/TR/2001/REC-SVG-20010904/DTD/svg10.dtd">
<svg version="1.0" xmlns="http://www.w3.org/2000/svg"
 width="400.000000pt" height="400.000000pt" viewBox="0 0 400.000000 400.000000"
 preserveAspectRatio="xMidYMid meet">
<metadata>
Created by potrace 1.11, written by Peter Selinger 2001-2013
</metadata>
<g transform="translate(0.000000,400.000000) scale(0.100000,-0.100000)"
fill="#000000" stroke="none">
<path d="M0 2000 l0 -2000 2000 0 2000 0 0 2000 0 2000 -2000 0 -2000 0 0
-2000z m950 719 c200 -32 299 -148 288 -339 -4 -62 -10 -88 -35 -131 -33 -61
-101 -113 -169 -131 l-42 -12 31 -20 c17 -12 45 -41 63 -66 27 -39 234 -457
234 -474 0 -4 -59 -5 -131 -4 l-130 3 -87 196 c-48 107 -95 208 -105 223 -24
35 -90 65 -144 66 l-43 0 0 -245 0 -245 -110 0 -110 0 0 595 0 595 213 0 c116
0 241 -5 277 -11z m2060 0 c200 -32 299 -148 288 -339 -4 -62 -10 -88 -35
-131 -33 -61 -101 -113 -169 -131 l-42 -12 31 -20 c17 -12 45 -41 63 -66 27
-39 234 -457 234 -474 0 -4 -59 -5 -131 -4 l-130 3 -87 196 c-48 107 -95 208
-105 223 -24 35 -90 65 -144 66 l-43 0 0 -245 0 -245 -110 0 -110 0 0 595 0
595 213 0 c116 0 241 -5 277 -11z"/>
<path d="M680 2375 l0 -167 93 4 c159 7 227 57 227 168 0 113 -51 150 -217
158 l-103 5 0 -168z"/>
<path d="M2740 2375 l0 -167 93 4 c159 7 227 57 227 168 0 113 -51 150 -217
158 l-103 5 0 -168z"/>
</g>
</svg>
